M48
;Layer_Color=9474304
;FILE_FORMAT=4:4
METRIC,LZ
;TYPE=PLATED
T01F00S00C0.7620
%
T01
X0135327Y005588
X0139827
Y006188
X0135327
X0134524Y0077597
X0128524Y0077597
X0117094Y0075819
Y0073279
Y0070739
X0117094Y0068199
X0117094Y0065659
Y0063119
Y0060579
Y0058039
Y0055499
Y0052959
Y0050419
Y0047879
Y0045339
Y0042799
Y0040259
X0092594
Y0042799
Y0045339
Y0047879
Y0050419
Y0052959
Y0055499
Y0058039
Y0060579
Y0063119
Y0065659
Y0068199
Y0070739
Y0073279
Y0075819
X0078263Y0077034
X0072263
X0068762Y0060071
X0064262
X0064262Y0054071
X0068762
X0072263Y0081534
X0078263Y0081534
X0092361Y0092964
X0094361
X0096361
X0103759Y0090805
X0111759
X0128524Y0082097
X0134524
M30
