G04*
G04 #@! TF.GenerationSoftware,Altium Limited,Altium Designer,25.3.3 (18)*
G04*
G04 Layer_Color=16711935*
%FSLAX44Y44*%
%MOMM*%
G71*
G04*
G04 #@! TF.SameCoordinates,BFA56DCA-6B84-46F4-87B7-A1C525471511*
G04*
G04*
G04 #@! TF.FilePolarity,Negative*
G04*
G01*
G75*
%ADD11C,1.7272*%
D11*
X642620Y600710D02*
D03*
X687620D02*
D03*
X642620Y540710D02*
D03*
X687620D02*
D03*
X1037590Y908050D02*
D03*
X1117590D02*
D03*
X925940Y758190D02*
D03*
Y427990D02*
D03*
Y453390D02*
D03*
Y478790D02*
D03*
Y504190D02*
D03*
Y529590D02*
D03*
Y554990D02*
D03*
Y580390D02*
D03*
Y605790D02*
D03*
Y631190D02*
D03*
Y656590D02*
D03*
Y681990D02*
D03*
Y707390D02*
D03*
Y732790D02*
D03*
Y402590D02*
D03*
X1170940Y758190D02*
D03*
Y427990D02*
D03*
Y453390D02*
D03*
Y478790D02*
D03*
Y504190D02*
D03*
Y529590D02*
D03*
Y554990D02*
D03*
Y580390D02*
D03*
Y605790D02*
D03*
Y631190D02*
D03*
Y656590D02*
D03*
X1170940Y681990D02*
D03*
X1170940Y707390D02*
D03*
Y732790D02*
D03*
Y402590D02*
D03*
X1353270Y618800D02*
D03*
X1398270D02*
D03*
X1353270Y558800D02*
D03*
X1398270D02*
D03*
X782630Y815340D02*
D03*
Y770340D02*
D03*
X722630Y815340D02*
D03*
Y770340D02*
D03*
X1285240Y775970D02*
D03*
Y820970D02*
D03*
X1345240Y775970D02*
D03*
Y820970D02*
D03*
X963610Y929640D02*
D03*
X943610D02*
D03*
X923610D02*
D03*
M02*
